<svg id="Layer_1" data-name="Layer 1" xmlns="http://www.w3.org/2000/svg" viewBox="0 0 1000 240"><title>BeatStudio_Logo</title><path d="M103.35,121.84a4.57,4.57,0,0,1,0-3.59,112.13,112.13,0,0,0,4.94-14.41A117.33,117.33,0,0,0,112,74.22a118.4,118.4,0,0,0-3.71-29.63c-2.73-9.87-6.31-19.75-13.51-29.62C87.53,24.84,84,34.72,81.22,44.59a118.86,118.86,0,0,0-3.71,29.63,117.33,117.33,0,0,0,3.66,29.62,113.71,113.71,0,0,0,4.6,13.62,6.71,6.71,0,0,1,0,5.17,115.75,115.75,0,0,0-4.56,13.53,118.79,118.79,0,0,0-3.71,29.62,117.41,117.41,0,0,0,3.66,29.63c2.72,9.87,6.32,19.75,13.56,29.62,7.24-9.87,10.84-19.75,13.56-29.62A117.41,117.41,0,0,0,112,165.78a118.32,118.32,0,0,0-3.71-29.62A113.71,113.71,0,0,0,103.35,121.84Z"/><path d="M161.36,36.94a60.48,60.48,0,0,1,5.4,16.63,93.68,93.68,0,0,1,1.49,16.64,92.64,92.64,0,0,1-1.47,16.64,60,60,0,0,1-5.42,16.64,59.71,59.71,0,0,1-5.42-16.64,91.74,91.74,0,0,1-1.47-16.64A93.68,93.68,0,0,1,156,53.57,60.48,60.48,0,0,1,161.36,36.94Z"/><path d="M161.36,138.45a60.54,60.54,0,0,1,5.4,16.64,93.48,93.48,0,0,1,1.49,16.63,92.56,92.56,0,0,1-1.47,16.64A59.94,59.94,0,0,1,161.36,205a59.61,59.61,0,0,1-5.42-16.64,91.66,91.66,0,0,1-1.47-16.64A93.48,93.48,0,0,1,156,155.09,60.54,60.54,0,0,1,161.36,138.45Z"/><path d="M35.54,224.21V15.79a.83.83,0,0,1,.83-.82h8.3a11.14,11.14,0,0,1,9.55,5.44c5.2,8.7,8.15,17.41,10.5,26.11a129.08,129.08,0,0,1,3.86,31.56,127.43,127.43,0,0,1-3.81,31.55c-.7,2.62-1.47,5.23-2.34,7.84a8.29,8.29,0,0,0,0,5.21q1.26,3.84,2.29,7.68a129.08,129.08,0,0,1,3.86,31.56,127.57,127.57,0,0,1-3.81,31.56,118.07,118.07,0,0,1-5.82,17A24.64,24.64,0,0,1,36.37,225h0A.83.83,0,0,1,35.54,224.21Z"/><path d="M135.81,121a2.84,2.84,0,0,1,0-2.54,90.21,90.21,0,0,0,7.08-21,123.66,123.66,0,0,0,2.65-25.88,124.25,124.25,0,0,0-2.69-25.88c-1.94-8.63-4.53-17.26-9.71-25.89C128,28.41,125.36,37,123.42,45.67a124.91,124.91,0,0,0-2.68,25.88,123,123,0,0,0,2.65,25.88,90.64,90.64,0,0,0,7.07,21,2.87,2.87,0,0,1,0,2.54,91.85,91.85,0,0,0-7,21,125.05,125.05,0,0,0-2.68,25.88,122.86,122.86,0,0,0,2.65,25.88c1.93,8.63,4.54,17.26,9.75,25.88,5.21-8.62,7.81-17.25,9.75-25.88a123.52,123.52,0,0,0,2.65-25.88,124.39,124.39,0,0,0-2.69-25.88A91.33,91.33,0,0,0,135.81,121Z"/><path d="M352.61,119.24A18.33,18.33,0,0,0,360,103.55a20.56,20.56,0,0,0-7.47-16.48c-4.85-4.07-11.64-6.13-20.18-6.13H304.11v78.12h30.22c8.16,0,14.86-1.88,19.92-5.59,5.27-3.85,7.94-9.58,7.94-17a19.33,19.33,0,0,0-3.66-12A20,20,0,0,0,352.61,119.24Zm-11.53-9c-2.25,1.56-5.62,2.35-10,2.35H320V95.32h11c4.73,0,8.18.78,10.24,2.31a7,7,0,0,1,2.83,6C344.11,106.67,343.12,108.83,341.08,110.25ZM320,126.78h12.55c5,0,8.58.85,10.71,2.54a7.7,7.7,0,0,1,3,6.41,7.47,7.47,0,0,1-3,6.56c-2.24,1.58-5.82,2.39-10.64,2.39H320Z"/><polygon points="386.86 126.98 422.23 126.98 422.23 112.09 386.86 112.09 386.86 95.83 424.29 95.83 424.29 80.94 370.94 80.94 370.94 159.06 425.01 159.06 425.01 144.17 386.86 144.17 386.86 126.98"/><path d="M463.43,80.94,431.1,159.06h16.57l6.89-17h32.2l6.89,17h17.19L478.51,80.94Zm17.45,46.47H460.55l10.2-25.09Z"/><polygon points="500.07 96.03 525.57 96.03 525.57 159.06 541.49 159.06 541.49 96.03 566.99 96.03 566.99 80.94 500.07 80.94 500.07 96.03"/><path d="M590.51,97.21c2-1.67,4.82-2.51,8.36-2.51a15.84,15.84,0,0,1,7.52,1.76,12.87,12.87,0,0,1,5.24,5.41,10.51,10.51,0,0,1,1,2q.45,1.24.84,2.52l.45,1.45h17L627.34,98a26.94,26.94,0,0,0-11.52-14.14l-.68-.39a33,33,0,0,0-16.27-3.86,29.58,29.58,0,0,0-10.49,1.83,26.09,26.09,0,0,0-8.47,5.08,23.67,23.67,0,0,0-7.77,17.66,20.22,20.22,0,0,0,5.39,14.29c3.5,3.77,9.05,6.45,16.5,8l8.87,1.85c5.58,1.09,7.88,2.51,8.82,3.51a6.82,6.82,0,0,1,2,4.87,7.49,7.49,0,0,1-3,6.21,12.9,12.9,0,0,1-8.34,2.53,18.76,18.76,0,0,1-8.35-1.8,12.85,12.85,0,0,1-5.65-5.5q-.47-.94-.9-2a15.73,15.73,0,0,1-.68-2.23l-.37-1.59h-17.2l4,11a22.48,22.48,0,0,0,6.49,9.41l.06.05a30.52,30.52,0,0,0,6.83,4.35,34.75,34.75,0,0,0,7.6,2.51,37.86,37.86,0,0,0,7.71.82,31.86,31.86,0,0,0,10.6-1.76,25.79,25.79,0,0,0,8.76-5.09,24.74,24.74,0,0,0,5.88-7.89,23.55,23.55,0,0,0,2.21-10.24A20.61,20.61,0,0,0,624,121.25c-3.51-3.92-9.07-6.67-16.54-8.19l-8.64-1.75c-5.78-1.18-8.19-2.61-9.18-3.61a6.69,6.69,0,0,1-2-5A7,7,0,0,1,590.51,97.21Z"/><polygon points="632.08 96.03 657.58 96.03 657.58 159.06 673.5 159.06 673.5 96.03 699 96.03 699 80.94 632.08 80.94 632.08 96.03"/><path d="M752.68,128.79a16.13,16.13,0,0,1-4,11.18c-2.67,3-6.43,4.45-11.48,4.45s-8.72-1.47-11.43-4.5a16.16,16.16,0,0,1-4.1-11.23V80.27H705.69v49.55A30.42,30.42,0,0,0,708,141.61a28,28,0,0,0,6.55,9.54,31,31,0,0,0,10,6.27,33.92,33.92,0,0,0,12.64,2.31,34.28,34.28,0,0,0,12.68-2.3,30.69,30.69,0,0,0,10-6.29,28.27,28.27,0,0,0,6.48-9.53,30.24,30.24,0,0,0,2.32-11.79V80.27H752.68Z"/><path d="M835.05,91.22a39.29,39.29,0,0,0-13.34-7.65,49.08,49.08,0,0,0-16.09-2.63H781.47v78.12H805a52.32,52.32,0,0,0,16.36-2.52,39.26,39.26,0,0,0,13.55-7.48A35,35,0,0,0,844,136.67a41,41,0,0,0,3.32-16.88A38.76,38.76,0,0,0,844,103.47,36.41,36.41,0,0,0,835.05,91.22Zm-29,52.95h-8.64V95.83h8.44a30.45,30.45,0,0,1,10.06,1.63,24.08,24.08,0,0,1,8,4.64,21.56,21.56,0,0,1,5.34,7.47,25.11,25.11,0,0,1,2,10.22,27.42,27.42,0,0,1-1.86,10.34,21.38,21.38,0,0,1-5.1,7.6,22.53,22.53,0,0,1-7.92,4.76A30.77,30.77,0,0,1,806,144.17Z"/><rect x="857.34" y="80.94" width="15.92" height="78.12"/><path d="M961.26,104.27a40.93,40.93,0,0,0-8.71-12.83,42,42,0,0,0-12.92-8.65,40.69,40.69,0,0,0-31.54,0,41.86,41.86,0,0,0-12.92,8.65,40.9,40.9,0,0,0-8.72,12.83,40.34,40.34,0,0,0,0,31.49,40.08,40.08,0,0,0,8.73,12.84,42,42,0,0,0,12.91,8.59,40.46,40.46,0,0,0,31.54,0,42.12,42.12,0,0,0,12.91-8.59,39.94,39.94,0,0,0,8.72-12.84,40.34,40.34,0,0,0,0-31.49ZM948.33,120a25.31,25.31,0,0,1-1.89,9.8,24.88,24.88,0,0,1-5.23,7.94,24.21,24.21,0,0,1-7.77,5.26,25.32,25.32,0,0,1-19.16,0,24.15,24.15,0,0,1-7.78-5.26,24.69,24.69,0,0,1-5.22-7.94,26.22,26.22,0,0,1,0-19.6,24.14,24.14,0,0,1,5.21-7.87,25.17,25.17,0,0,1,7.8-5.28,24.55,24.55,0,0,1,19.13,0,25.29,25.29,0,0,1,7.8,5.28,24,24,0,0,1,5.21,7.87A25.21,25.21,0,0,1,948.33,120Z"/></svg>