<svg xmlns="http://www.w3.org/2000/svg" viewBox="0 0 1024 200"><defs><style>.cls-1{fill:#976cff;}</style></defs><title>GraÌfico de info relevante (Layout About us)</title><g id="Icono"><path class="cls-1" d="M341.71,96a6.41,6.41,0,1,0-6.41-6.41A6.38,6.38,0,0,0,341.71,96Z"/><path class="cls-1" d="M345.89,100.27h-8.75a4.18,4.18,0,0,0-4.17,4.18v11.72h17.09V104.45A4.18,4.18,0,0,0,345.89,100.27Z"/><path class="cls-1" d="M358.7,89.59a6.38,6.38,0,0,0-6.39-6.41,6.1,6.1,0,0,0-2.26.43,9.16,9.16,0,0,1,0,12,6.1,6.1,0,0,0,2.26.43A6.38,6.38,0,0,0,358.7,89.59Z"/><path class="cls-1" d="M356.54,100.27h-2.7a6.08,6.08,0,0,1,.5,2.44v13.46h6.41V104.48A4.22,4.22,0,0,0,356.54,100.27Z"/><polygon class="cls-1" points="322.62 90.77 320.62 90.77 320.62 97.25 314.13 97.25 314.13 99.25 320.62 99.25 320.62 105.74 322.62 105.74 322.62 99.25 329.1 99.25 329.1 97.25 322.62 97.25 322.62 90.77"/><path class="cls-1" d="M189.17,98.92a11.94,11.94,0,0,0-8.46-11.41,11.93,11.93,0,0,0-22.83,0,11.93,11.93,0,0,0,0,22.83,11.93,11.93,0,0,0,22.83,0A11.94,11.94,0,0,0,189.17,98.92ZM169.3,81.05a9.93,9.93,0,0,1,9.11,6,11.12,11.12,0,0,0-1.16-.06,11.89,11.89,0,0,0-7.94,3h0v0a11.87,11.87,0,0,0-7.94-3,11.17,11.17,0,0,0-1.17.06A9.93,9.93,0,0,1,169.3,81.05ZM179.22,91a9.87,9.87,0,0,1-2.51,6.58,10.52,10.52,0,0,0-.86-.63l-.37-.22a8.44,8.44,0,0,0-1-.54l-.32-.16a13.41,13.41,0,0,0-1.42-.54h0a11,11,0,0,0-.52-1.39c-.06-.11-.11-.22-.17-.34a9.49,9.49,0,0,0-.54-1l-.2-.34c-.21-.3-.42-.6-.65-.88a9.83,9.83,0,0,1,8.38-2.34A9.8,9.8,0,0,1,179.22,91Zm-.17,17.71a9.83,9.83,0,0,1-8.38-2.34c.22-.27.42-.55.62-.84s.18-.3.28-.46.31-.55.45-.83.15-.3.22-.46a10.91,10.91,0,0,0,.5-1.32.07.07,0,0,1,.06-.06,10.91,10.91,0,0,0,1.32-.5l.46-.22c.28-.14.56-.29.83-.45l.47-.28c.28-.2.56-.4.83-.62a9.83,9.83,0,0,1,2.34,8.38Zm-19.68-1.81a9.86,9.86,0,0,1,2.51-6.57c.28.23.58.44.88.65l.34.2a9.49,9.49,0,0,0,1,.54l.34.17a11,11,0,0,0,1.39.52h0a13.41,13.41,0,0,0,.54,1.42c0,.11.11.21.16.32a9.49,9.49,0,0,0,.54,1c.07.12.14.24.22.36a10.52,10.52,0,0,0,.63.86,9.83,9.83,0,0,1-8.38,2.34A9.83,9.83,0,0,1,159.37,106.87Zm.17-17.7a9.83,9.83,0,0,1,8.38,2.34,9.55,9.55,0,0,0-.66.91l-.14.23a12.83,12.83,0,0,0-.63,1.15l-.1.21a14,14,0,0,0-.56,1.45,14,14,0,0,0-1.45.56l-.21.1c-.39.19-.78.4-1.14.62l-.24.15a9.55,9.55,0,0,0-.91.66,9.83,9.83,0,0,1-2.34-8.38Zm-8.12,9.75a9.93,9.93,0,0,1,6-9.11,11.12,11.12,0,0,0-.06,1.16,11.83,11.83,0,0,0,3,7.94l0,0h0a11.88,11.88,0,0,0-3,7.93,11.17,11.17,0,0,0,.06,1.17A9.93,9.93,0,0,1,151.42,98.92ZM169.3,116.8a9.93,9.93,0,0,1-9.12-6,11.17,11.17,0,0,0,1.17.06,11.87,11.87,0,0,0,7.94-3v0h0a11.89,11.89,0,0,0,7.94,3,11.12,11.12,0,0,0,1.16-.06A9.93,9.93,0,0,1,169.3,116.8ZM181.16,108a11.17,11.17,0,0,0,.06-1.17,11.88,11.88,0,0,0-3-7.93h0l0,0A11.83,11.83,0,0,0,181.22,91a11.12,11.12,0,0,0-.06-1.16,9.92,9.92,0,0,1,0,18.23Z"/><path class="cls-1" d="M492.42,103a3.48,3.48,0,0,1-1.41-.26,2.35,2.35,0,0,1-.66-.36,3.28,3.28,0,0,1-1.09-1.9h-2.11a4.89,4.89,0,0,0,.5,1.81,4.19,4.19,0,0,0,1.08,1.35,4.6,4.6,0,0,0,1.58.84,5.11,5.11,0,0,0,.7.17v2.75h2v-2.67h0a5.81,5.81,0,0,0,1.09-.2,5.27,5.27,0,0,0,1.56-.7,3.65,3.65,0,0,0,1.11-1.17,3.15,3.15,0,0,0,.42-1.64,3.1,3.1,0,0,0-.35-1.56,3.27,3.27,0,0,0-.94-1,5.09,5.09,0,0,0-1.34-.67,14.63,14.63,0,0,0-1.55-.4h0l-1.51-.28A4.58,4.58,0,0,1,491,97a3,3,0,0,1-.84-.42,1.28,1.28,0,0,1-.52-1.09,1.17,1.17,0,0,1,.24-.76,1.86,1.86,0,0,1,.58-.5A2.55,2.55,0,0,1,491,94a.86.86,0,0,1,.23-.06,3.58,3.58,0,0,1,.77-.09,4,4,0,0,1,.91.1.32.32,0,0,1,.09,0h0a2.44,2.44,0,0,1,.74.27,2.09,2.09,0,0,1,.68.58,2.38,2.38,0,0,1,.43.92h2.08a4.69,4.69,0,0,0-.62-1.65,4,4,0,0,0-1.06-1.14,4.3,4.3,0,0,0-1.42-.66,7.17,7.17,0,0,0-.83-.16h0V89.42h-2v2.73a5.59,5.59,0,0,0-.56.12,5.14,5.14,0,0,0-1.49.65A3.55,3.55,0,0,0,487.89,94a2.77,2.77,0,0,0-.41,1.51,3.2,3.2,0,0,0,.28,1.36,3.05,3.05,0,0,0,.77,1,4.06,4.06,0,0,0,1.12.69A7.17,7.17,0,0,0,491,99h0l1.49.29.49.12h0a2.88,2.88,0,0,1,.4.09,3.3,3.3,0,0,1,.81.35,2,2,0,0,1,.59.54,1.3,1.3,0,0,1,.23.8,1.56,1.56,0,0,1-.2.78,1.75,1.75,0,0,1-.56.59,2.67,2.67,0,0,1-.84.36,3,3,0,0,1-.43.07h0A3.81,3.81,0,0,1,492.42,103Z"/><path class="cls-1" d="M526.19,81H506.11a2,2,0,0,0-2,2v33.45a2,2,0,0,0,2,2h20.08a2,2,0,0,0,2-2V83A2,2,0,0,0,526.19,81Zm-10,35.87a2.27,2.27,0,1,1,2.27-2.27A2.27,2.27,0,0,1,516.15,116.91Zm10-6.29H506.11V84.79l20.08-.12Z"/><path class="cls-1" d="M683.71,82a18.5,18.5,0,0,0-18.47,18.47v16.66a2,2,0,0,0,2,2h9.66V105.34h-9.66v-4.87a16.47,16.47,0,1,1,32.94,0v4.87h-9.65v13.79h9.65a2,2,0,0,0,2-2V100.47A18.49,18.49,0,0,0,683.71,82Z"/><path class="cls-1" d="M873.3,111.39A9,9,0,0,0,868.14,95a8.82,8.82,0,0,0-4.69,1.33l-5.58-8.5H865l5-5-1.41-1.41-4.39,4.38h-7.32a1.46,1.46,0,0,0-1.22,2.26l3.78,5.76h0l-8.87,8.84a4.34,4.34,0,0,0-2.33-.67,4.44,4.44,0,0,0-3.47,1.67h0l-3-13.37h4.37v-2h-11.5v2h5.08L844,109.23h0l-6.39,6.37h-5v2h42.9a1,1,0,0,0,.88-.52,1,1,0,0,0,0-1ZM866.48,101a3.44,3.44,0,0,1,5.1,3,3.41,3.41,0,0,1-1.34,2.72,3.35,3.35,0,0,1-1.93.71h-.17A3.44,3.44,0,0,1,864.7,104a3.37,3.37,0,0,1,.36-1.52A3.46,3.46,0,0,1,866.48,101ZM840.4,115.6l5.45-5.43a4.43,4.43,0,0,0,6.82-3.74,4.32,4.32,0,0,0-.69-2.36l8.54-8.51,1.32,2a8.93,8.93,0,0,0-2.72,6.43,9,9,0,0,0,12.42,8.35l2.13,3.25Z"/><path class="cls-1" d="M854.46,148.65c-.85,0-1.7,0-2.54,0l0-1.06c.83,0,1.66,0,2.51,0h.8v1.06Zm-342.47,0h-.18v-1.07H512c1.06,0,2.1,0,3.13,0l0,1.06C514.11,148.63,513.06,148.65,512,148.65Zm-343.63,0c-1.13,0-2.24,0-3.34-.09l0-1.06c1.08,0,2.19.08,3.3.09Zm3.34,0,0-1.06c1.12,0,2.22-.06,3.31-.11l0,1.06C173.94,148.57,172.83,148.6,171.7,148.62Zm336.77,0c-1.13,0-2.24-.09-3.34-.16l.07-1.06c1.08.07,2.18.13,3.3.16Zm350.13,0,0-1.06q1.68-.06,3.3-.18l.07,1.06Q860.3,148.51,858.6,148.57Zm-10-.08c-1.12-.06-2.24-.14-3.33-.23l.09-1.06c1.08.09,2.18.17,3.3.23Zm-330.1,0-.06-1c1.11-.07,2.21-.15,3.29-.25l.1,1C520.72,148.3,519.61,148.39,518.48,148.45Zm-356.79-.08c-1.13-.09-2.24-.18-3.33-.3l.11-1.06c1.08.12,2.18.22,3.29.3Zm16.68-.08-.08-1.06c1.11-.09,2.2-.2,3.28-.32l.13,1.05C180.6,148.09,179.5,148.2,178.37,148.29Zm323.43-.12c-1.12-.11-2.23-.23-3.32-.38l.14-1c1.07.14,2.17.27,3.28.37Zm363.46-.06-.1-1.06c1.1-.11,2.2-.24,3.28-.39l.14,1.05C867.49,147.86,866.38,148,865.26,148.11Zm-23.33-.2c-1.12-.13-2.23-.28-3.31-.45l.16-1.05q1.62.26,3.27.45Zm-316.8-.07-.13-1.05q1.65-.21,3.27-.48l.17,1.05C527.35,147.54,526.25,147.7,525.13,147.84ZM155,147.66c-1.11-.16-2.21-.34-3.3-.53l.19-1c1.07.19,2.16.36,3.26.52Zm30-.15-.16-1c1.1-.16,2.18-.35,3.25-.55l.2,1C187.22,147.15,186.12,147.34,185,147.51Zm310.16-.21c-1.11-.19-2.2-.39-3.28-.62l.22-1c1.06.21,2.14.42,3.24.6Zm376.71-.1-.18-1q1.63-.28,3.24-.63l.22,1C874.08,146.79,873,147,871.88,147.2Zm-36.55-.32c-1.11-.22-2.2-.45-3.27-.7l.24-1c1.06.24,2.14.47,3.23.69Zm-303.61-.12-.21-1c1.09-.22,2.17-.46,3.23-.71l.25,1C533.91,146.3,532.83,146.54,531.72,146.76Zm-383.25-.28c-1.1-.24-2.19-.5-3.25-.77l.26-1c1.06.27,2.13.53,3.21.76Zm43.1-.22-.24-1c1.08-.25,2.15-.52,3.2-.8l.28,1Q193.22,145.89,191.57,146.26ZM488.63,146c-1.09-.27-2.17-.56-3.23-.86l.3-1c1,.3,2.11.58,3.19.85Zm389.78-.15-.26-1q1.62-.41,3.18-.87l.31,1C880.58,145.23,879.5,145.53,878.41,145.8Zm-49.59-.44c-1.06-.3-2.14-.61-3.2-1l.32-1c1,.34,2.12.65,3.16.94Zm-290.6-.17-.29-1c1.07-.3,2.12-.62,3.16-1l.33,1C540.37,144.56,539.3,144.88,538.22,145.19ZM142,144.81c-1.06-.32-2.13-.66-3.18-1l.34-1c1,.36,2.08.7,3.14,1Zm56-.29-.32-1c1.06-.33,2.1-.68,3.13-1.05l.36,1C200.15,143.83,199.09,144.18,198,144.52Zm284.19-.42c-1-.35-2.11-.72-3.15-1.11l.37-1c1,.39,2.08.76,3.12,1.1Zm402.61-.19-.34-1c1-.35,2.08-.73,3.1-1.12l.38,1C886.93,143.17,885.87,143.55,884.82,143.91Zm-62.37-.58c-1-.38-2.08-.78-3.12-1.2l.41-1c1,.41,2,.81,3.08,1.18Zm-277.88-.21-.37-1c1-.38,2.07-.79,3.07-1.21l.41,1C546.66,142.32,545.62,142.73,544.57,143.12Zm-408.89-.49c-1.05-.4-2.08-.83-3.09-1.27l.42-1c1,.43,2,.85,3.06,1.26Zm68.63-.36-.39-1c1-.41,2-.85,3-1.29l.44,1C206.39,141.41,205.35,141.85,204.31,142.27ZM476,141.75c-1-.44-2-.89-3.06-1.36l.45-1c1,.46,2,.91,3,1.34Zm415.1-.24-.42-1c1-.44,2-.89,3-1.36l.45,1C893.11,140.6,892.09,141.06,891.06,141.51Zm-74.79-.71c-1-.46-2-1-3-1.44l.48-1c1,.49,2,1,3,1.43Zm-265.53-.26-.45-1c1-.46,2-1,3-1.45l.49,1C552.76,139.58,551.76,140.07,550.74,140.54ZM129.55,140c-1-.49-2-1-3-1.51l.49-.94c1,.52,2,1,3,1.5Zm80.86-.44-.48-1c1-.49,2-1,2.93-1.53l.51.93C212.4,138.5,211.41,139,210.41,139.52Zm259.5-.61c-1-.52-2-1-2.94-1.6l.52-.92c1,.54,1.92,1.06,2.91,1.57Zm427.18-.29-.49-.94c1-.51,1.94-1.05,2.89-1.59l.53.91C899.06,137.56,898.08,138.1,897.09,138.62Zm-86.79-.83c-1-.54-1.94-1.09-2.89-1.67l.54-.91c.94.57,1.9,1.12,2.86,1.66Zm-253.61-.3-.52-.92c1-.54,1.91-1.1,2.85-1.67l.55.9C558.63,136.38,557.66,136.94,556.69,137.49Zm-433-.67c-1-.56-1.92-1.14-2.86-1.73l.57-.9q1.38.88,2.82,1.71Zm92.61-.51-.54-.91c.94-.57,1.88-1.15,2.8-1.75l.58.89C218.18,135.15,217.23,135.74,216.27,136.31Zm247.83-.7c-1-.59-1.89-1.19-2.82-1.81l.59-.88c.92.61,1.84,1.2,2.78,1.78Zm438.78-.33-.56-.9c.93-.58,1.86-1.18,2.77-1.8l.59.88C904.76,134.08,903.83,134.69,902.88,135.28Zm-98.31-.93c-.93-.61-1.85-1.24-2.76-1.88l.61-.87c.9.64,1.81,1.25,2.73,1.86ZM562.39,134l-.58-.89c.92-.61,1.83-1.24,2.73-1.88l.62.87C564.25,132.75,563.33,133.39,562.39,134ZM118,133.25q-1.4-.94-2.73-1.92l.62-.86c.89.65,1.79,1.28,2.7,1.9Zm103.87-.57-.6-.87c.91-.63,1.8-1.28,2.69-1.94l.63.85C223.71,131.39,222.8,132,221.88,132.68Zm236.65-.78c-.9-.65-1.8-1.31-2.68-2l.64-.85c.88.67,1.76,1.33,2.66,2Zm449.9-.36-.63-.86c.9-.65,1.78-1.32,2.66-2l.65.84C910.23,130.21,909.33,130.88,908.43,131.54Zm-109.33-1q-1.33-1-2.64-2l.66-.83c.87.68,1.74,1.36,2.62,2Zm-231.24-.39-.65-.84c.89-.67,1.75-1.35,2.61-2l.67.82C569.62,128.76,568.75,129.45,567.86,130.12Zm-455.25-.81c-.88-.68-1.75-1.38-2.61-2.09l.68-.81q1.27,1.05,2.58,2.07Zm114.64-.63-.66-.83c.87-.69,1.73-1.38,2.57-2.09l.68.81C229,127.29,228.13,128,227.25,128.68Zm226-.83c-.86-.7-1.72-1.41-2.56-2.13l.69-.81c.84.71,1.68,1.42,2.54,2.11Zm460.49-.41-.67-.82c.85-.7,1.7-1.41,2.53-2.13l.7.8C915.43,126,914.58,126.74,913.72,127.44Zm-119.83-1.08q-1.27-1.08-2.52-2.19l.7-.79c.83.73,1.66,1.45,2.5,2.16Zm-220.83-.43-.69-.81c.84-.71,1.67-1.44,2.5-2.18l.7.79C574.75,124.48,573.91,125.21,573.06,125.93Zm-465.6-.86c-.84-.73-1.66-1.47-2.49-2.22l.72-.78c.81.74,1.64,1.48,2.47,2.2Zm124.91-.68-.7-.8q1.25-1.09,2.46-2.22l.72.78C234,122.91,233.21,123.65,232.37,124.39Zm215.8-.87c-.83-.75-1.65-1.5-2.46-2.26l.73-.78q1.2,1.14,2.43,2.25Zm470.6-.44-.71-.79c.82-.74,1.62-1.49,2.43-2.25l.73.77ZM788.9,121.93c-.81-.75-1.62-1.52-2.42-2.29l.74-.77c.79.77,1.59,1.53,2.4,2.29ZM578,121.48l-.72-.78c.8-.75,1.6-1.51,2.39-2.29l.74.76C579.65,120,578.84,120.72,578,121.48Zm-475.5-.9c-.8-.77-1.6-1.54-2.39-2.33l.75-.75c.78.78,1.58,1.55,2.38,2.31Zm134.74-.72-.74-.76c.8-.77,1.59-1.54,2.37-2.32l.75.75C238.86,118.31,238.07,119.09,237.27,119.86Zm206-.91c-.79-.78-1.58-1.57-2.36-2.36l.75-.75c.78.79,1.56,1.57,2.36,2.35Zm480.31-.46-.74-.75c.79-.78,1.56-1.56,2.34-2.35l.76.74C925.19,116.93,924.4,117.71,923.61,118.49Zm-139.51-1.2c-.78-.78-1.56-1.58-2.34-2.38l.77-.74c.77.8,1.54,1.59,2.32,2.37Zm-201.29-.46-.76-.75c.78-.78,1.55-1.57,2.32-2.37l.77.74C584.37,115.25,583.59,116,582.81,116.83Zm-485-1c-.78-.79-1.56-1.59-2.32-2.4l.77-.73c.76.8,1.53,1.6,2.3,2.39Zm144.2-.72-.77-.74,2.3-2.4.77.73C243.53,113.56,242.76,114.36,242,115.16Zm196.62-1c-.77-.8-1.54-1.61-2.3-2.43l.78-.72,2.28,2.41Zm489.67-.46-.77-.73c.77-.8,1.53-1.61,2.28-2.42l.78.73C929.81,112.13,929.05,112.94,928.28,113.74ZM779.46,112.5l-2.28-2.45.78-.72c.75.82,1.51,1.63,2.27,2.44Zm-192-.47-.78-.73c.76-.8,1.51-1.61,2.26-2.43l.78.72C588.94,110.41,588.19,111.22,587.43,112Zm-494.25-1c-.76-.81-1.51-1.63-2.26-2.45l.78-.72c.75.82,1.5,1.64,2.26,2.45Zm153.38-.73-.78-.73c.76-.81,1.5-1.62,2.25-2.44l.78.71Q247.7,109.09,246.56,110.32Zm187.48-1-2.24-2.47.79-.71,2.24,2.46Zm498.79-.46-.79-.72c.75-.81,1.5-1.63,2.24-2.46l.79.72Zm-157.9-1.28c-.75-.82-1.49-1.64-2.23-2.47l.79-.71c.74.82,1.48,1.65,2.23,2.47Zm-183-.46-.79-.71c.74-.83,1.49-1.65,2.23-2.47l.79.7Zm-503.26-1-2.23-2.49.79-.7,2.23,2.48Zm162.37-.74-.79-.71,2.21-2.48.8.71Zm178.52-1-2.22-2.49.79-.7,2.22,2.48Zm507.72-.45-.79-.71,2.21-2.48.8.7Zm-166.82-1.3-2.21-2.48.79-.71,2.22,2.49Zm-174.09-.46-.79-.71L597.81,99l.79.7Zm-512.14-1L82,98.67l.79-.71L85,100.45Zm171.24-.74-.79-.7,2.21-2.49.79.71Zm169.66-1-2.22-2.49.79-.71,2.22,2.49ZM941.72,99l-.79-.7,2.22-2.49.79.71ZM766.05,97.66l-2.22-2.48.79-.71L766.84,97ZM600.81,97.2l-.79-.71c.74-.83,1.48-1.66,2.23-2.48l.79.71C602.29,95.54,601.55,96.37,600.81,97.2Zm-521-1c-.74-.83-1.48-1.65-2.23-2.47l.79-.72,2.23,2.48Zm180.1-.74-.79-.71,2.24-2.47.78.71Zm160.79-1c-.74-.83-1.48-1.65-2.23-2.46l.78-.72c.75.82,1.5,1.64,2.24,2.47ZM946.16,94l-.79-.71c.75-.82,1.5-1.65,2.25-2.46l.78.71ZM761.6,92.72c-.75-.82-1.49-1.64-2.25-2.45l.78-.72c.76.81,1.51,1.63,2.25,2.45Zm-156.33-.47-.78-.71c.75-.83,1.5-1.64,2.26-2.46l.78.72Zm-529.92-1-2.26-2.43.77-.73,2.27,2.44Zm189-.73-.78-.72,2.28-2.44.77.73C265.9,88.9,265.14,89.71,264.39,90.53Zm151.83-1-2.28-2.42.77-.73c.77.8,1.53,1.61,2.28,2.42Zm534.44-.46-.77-.72c.76-.82,1.52-1.62,2.29-2.43l.77.74C952.18,87.48,951.42,88.28,950.66,89.09ZM757.09,87.85c-.76-.81-1.53-1.61-2.3-2.4l.76-.74c.78.8,1.54,1.6,2.31,2.41ZM609.8,87.38l-.77-.73c.77-.81,1.54-1.61,2.32-2.4l.76.74C611.33,85.78,610.56,86.58,609.8,87.38Zm-539-1q-1.14-1.2-2.31-2.37l.76-.75c.78.79,1.55,1.59,2.32,2.39ZM269,85.69,268.2,85c.77-.79,1.55-1.59,2.34-2.38l.75.75Zm142.68-.94c-.78-.79-1.56-1.58-2.34-2.35l.74-.76c.79.78,1.58,1.57,2.36,2.36Zm543.62-.46-.75-.74c.78-.8,1.57-1.58,2.36-2.36l.74.76C956.82,82.72,956,83.5,955.26,84.29Zm-202.8-1.2c-.78-.78-1.57-1.55-2.36-2.32l.73-.76c.8.77,1.6,1.54,2.38,2.33Zm-138-.46-.75-.75c.79-.79,1.59-1.56,2.39-2.33l.74.77C616,81.08,615.23,81.85,614.45,82.63ZM66.14,81.71c-.79-.77-1.59-1.54-2.39-2.29l.72-.77c.81.76,1.62,1.52,2.41,2.3ZM273.65,81l-.73-.77c.8-.77,1.61-1.53,2.42-2.29l.72.78C275.25,79.47,274.45,80.23,273.65,81Zm133.27-.91c-.8-.76-1.61-1.51-2.42-2.25l.71-.79c.82.75,1.64,1.51,2.44,2.27ZM960,79.65l-.72-.77c.81-.77,1.62-1.52,2.45-2.27l.71.79C961.62,78.14,960.81,78.89,960,79.65ZM747.69,78.5c-.82-.75-1.63-1.49-2.46-2.22l.7-.79c.83.73,1.66,1.48,2.48,2.23Zm-128.44-.45-.72-.78q1.23-1.12,2.49-2.22l.69.8C620.88,76.57,620.06,77.31,619.25,78.05ZM61.31,77.18c-.82-.74-1.65-1.47-2.49-2.18l.69-.81c.85.72,1.68,1.46,2.51,2.2Zm217.21-.68-.71-.8c.83-.74,1.67-1.46,2.52-2.18l.69.82C280.17,75,279.34,75.77,278.52,76.5ZM402,75.64c-.83-.73-1.67-1.44-2.53-2.14l.68-.82c.86.71,1.71,1.43,2.55,2.15Zm562.9-.43-.69-.8c.84-.72,1.69-1.44,2.55-2.14l.67.83C966.6,73.79,965.75,74.5,964.92,75.21ZM742.71,74.13c-.84-.71-1.7-1.41-2.57-2.09l.66-.84c.88.69,1.74,1.4,2.6,2.11Zm-118.48-.42-.68-.82c.86-.71,1.73-1.41,2.61-2.09l.65.83C625.94,72.31,625.08,73,624.23,73.71Zm-568-.83c-.85-.7-1.72-1.38-2.6-2l.64-.84c.89.67,1.77,1.36,2.63,2.06Zm227.3-.63-.66-.83c.87-.7,1.75-1.38,2.65-2l.63.85C285.31,70.89,284.43,71.56,283.57,72.25Zm113.34-.82c-.88-.68-1.76-1.34-2.65-2l.62-.86c.9.66,1.8,1.33,2.68,2ZM970.05,71l-.65-.84c.89-.68,1.78-1.34,2.68-2l.62.86C971.81,69.71,970.92,70.37,970.05,71ZM737.51,70c-.88-.66-1.78-1.3-2.69-1.94l.61-.87c.91.64,1.82,1.29,2.72,2Zm-108.06-.38-.63-.86c.9-.66,1.8-1.3,2.73-1.93l.6.88C631.23,68.35,630.34,69,629.45,69.64ZM51,68.86c-.9-.64-1.81-1.27-2.73-1.88l.59-.89c.93.62,1.85,1.26,2.76,1.91Zm237.87-.57-.61-.87c.91-.64,1.84-1.26,2.77-1.87l.58.89C290.69,67,289.77,67.66,288.87,68.29Zm102.67-.76c-.91-.62-1.83-1.22-2.76-1.81l.56-.9c1,.59,1.88,1.21,2.8,1.83Zm583.88-.34-.59-.89c.92-.61,1.86-1.22,2.81-1.81l.56.91C977.26,66,976.33,66.57,975.42,67.19Zm-243.35-.94c-.92-.6-1.86-1.18-2.81-1.74l.55-.91c1,.57,1.9,1.15,2.84,1.76Zm-97.16-.34-.57-.9c.93-.59,1.89-1.17,2.85-1.74l.54.92C636.77,64.75,635.83,65.32,634.91,65.91ZM45.48,65.2c-.93-.58-1.88-1.14-2.84-1.68l.52-.92c1,.55,1.93,1.11,2.88,1.69Zm248.93-.51-.54-.91c.95-.57,1.92-1.13,2.89-1.67l.52.93C296.31,63.58,295.35,64.13,294.41,64.69ZM386,64c-.95-.55-1.91-1.09-2.89-1.6l.5-.94c1,.52,2,1.06,2.92,1.62ZM981,63.7l-.52-.92c1-.55,1.94-1.08,2.93-1.6l.49.94C983,62.63,982,63.16,981,63.7Zm-254.64-.83c-1-.52-1.94-1-2.93-1.52l.48-1c1,.5,2,1,3,1.54Zm-85.78-.3-.51-.93c1-.52,2-1,3-1.52l.47,1Q642.05,61.81,640.61,62.57ZM39.73,62c-1-.5-2-1-3-1.46l.45-1c1,.48,2,1,3,1.48Zm260.47-.44-.48-.95c1-.5,2-1,3-1.44l.44,1C302.17,60.54,301.18,61,300.2,61.51Zm79.91-.59q-1.47-.72-3-1.38l.42-1c1,.44,2.05.91,3,1.39Zm606.78-.26-.45-1c1-.48,2-.93,3-1.37l.42,1C988.88,59.74,987.88,60.19,986.89,60.66Zm-266.41-.72c-1-.44-2-.88-3-1.29l.39-1c1,.41,2.08.85,3.08,1.3Zm-73.94-.25-.43-1c1-.44,2-.87,3.09-1.28l.39,1C648.56,58.82,647.54,59.25,646.54,59.69ZM33.75,59.16c-1-.43-2-.83-3.07-1.22l.37-1c1.06.39,2.09.8,3.11,1.23Zm272.46-.37-.4-1c1-.41,2.07-.81,3.12-1.19l.36,1C308.25,58,307.22,58.37,306.21,58.79Zm67.85-.5c-1-.4-2.05-.77-3.1-1.13l.34-1c1.06.36,2.11.74,3.14,1.14ZM993,58.07l-.37-1c1-.39,2.08-.76,3.14-1.12l.34,1C995,57.32,994,57.69,993,58.07Zm-278.61-.59c-1-.36-2.07-.71-3.13-1l.32-1c1.07.33,2.12.68,3.17,1Zm-61.67-.2-.34-1c1-.36,2.1-.7,3.18-1l.3,1C654.76,56.58,653.71,56.92,652.68,57.28ZM27.57,56.85c-1-.34-2.09-.67-3.16-1l.29-1c1.09.31,2.15.63,3.2,1Zm284.85-.3-.32-1c1-.34,2.12-.65,3.2-.95l.28,1C314.51,55.91,313.46,56.22,312.42,56.55Zm55.39-.4c-1-.31-2.1-.6-3.18-.88l.27-1c1.09.27,2.16.57,3.22.89ZM999.22,56l-.3-1c1.06-.3,2.14-.59,3.23-.86l.26,1C1001.33,55.39,1000.27,55.68,999.22,56Zm-291.17-.46c-1-.28-2.12-.54-3.2-.79l.23-1c1.1.25,2.18.51,3.25.8Zm-49-.16-.27-1c1.07-.28,2.15-.54,3.25-.78l.23,1C661.12,54.83,660.05,55.09,659,55.36ZM21.22,55c-1.06-.25-2.13-.49-3.22-.72l.21-1c1.11.22,2.19.46,3.26.72Zm297.56-.22-.24-1c1.08-.25,2.17-.48,3.27-.7l.2,1.05C320.92,54.34,319.84,54.57,318.78,54.81Zm42.64-.29c-1.06-.23-2.14-.44-3.24-.64l.18-1c1.11.19,2.21.41,3.28.64Zm644.2-.13-.21-1c1.08-.22,2.17-.43,3.28-.62l.18,1.05C1007.77,54,1006.69,54.17,1005.62,54.39Zm-304-.33c-1.08-.2-2.16-.39-3.26-.55l.16-1c1.11.17,2.21.35,3.29.56ZM665.44,54l-.18-1.05c1.08-.19,2.18-.37,3.29-.53l.15,1.05C667.6,53.58,666.52,53.75,665.44,54ZM14.75,53.72c-1.07-.18-2.16-.34-3.26-.48l.13-1.06c1.12.15,2.22.31,3.31.49Zm310.52-.16-.17-1.05c1.09-.16,2.19-.31,3.31-.45l.13,1.06C327.43,53.25,326.34,53.4,325.27,53.56Zm29.65-.19c-1.08-.15-2.17-.29-3.28-.4l.11-1.06c1.12.12,2.23.25,3.32.41Zm657.21-.08-.14-1.06c1.09-.14,2.2-.27,3.32-.38l.1,1.06C1014.31,53,1013.21,53.14,1012.13,53.29Zm-317-.22c-1.08-.12-2.17-.23-3.28-.32l.08-1c1.12.09,2.23.19,3.32.32ZM672,53l-.11-1c1.09-.12,2.2-.22,3.32-.3l.08,1.05C674.16,52.79,673.06,52.89,672,53ZM8.2,52.87c-1.08-.1-2.18-.19-3.29-.26L5,51.55c1.13.07,2.24.16,3.33.26Zm323.63-.09-.09-1.05c1.09-.1,2.2-.17,3.33-.23l.06,1.06C334,52.62,332.91,52.69,331.83,52.78Zm16.52-.1q-1.64-.12-3.3-.18l0-1.06q1.7.06,3.33.18Zm670.36,0-.07-1.06c1.1-.07,2.21-.13,3.34-.17l0,1.07C1020.9,52.51,1019.8,52.57,1018.71,52.64Zm-330.21-.1c-1.09,0-2.19-.09-3.31-.11l0-1.06c1.13,0,2.24.06,3.34.11Zm-9.92,0-.05-1.06c1.1,0,2.21-.07,3.34-.09v1.06C680.77,52.44,679.66,52.47,678.58,52.51Zm-677,0c-1.09,0-2.19-.05-3.31-.05V51.35c1.13,0,2.24,0,3.34,0Zm336.82,0,0-1.06c.78,0,1.56,0,2.35,0h1v1.06h-1C340,52.41,339.2,52.42,338.43,52.44Zm687.27,0h-.38V51.35h.38Z"/></g></svg>