<svg xmlns="http://www.w3.org/2000/svg" viewBox="0 0 26 26"><defs><style>.cls-1{fill:#976cff;}.cls-2{fill:#fff;}</style></defs><title>Iconos</title><g id="Icono"><circle class="cls-1" cx="13" cy="13" r="13"/><g id="_Group_" data-name="&lt;Group&gt;"><path id="_Compound_Path_" data-name="&lt;Compound Path&gt;" class="cls-2" d="M13,7.64c1.75,0,1.95,0,2.64,0a3.62,3.62,0,0,1,1.22.23A2.18,2.18,0,0,1,18.1,9.14a3.62,3.62,0,0,1,.23,1.22c0,.69,0,.89,0,2.64s0,1.95,0,2.64a3.62,3.62,0,0,1-.23,1.22,2.18,2.18,0,0,1-1.24,1.24,3.62,3.62,0,0,1-1.22.23c-.69,0-.89,0-2.64,0s-1.95,0-2.64,0a3.62,3.62,0,0,1-1.22-.23A2.18,2.18,0,0,1,7.9,16.86a3.62,3.62,0,0,1-.23-1.22c0-.69,0-.89,0-2.64s0-1.95,0-2.64A3.62,3.62,0,0,1,7.9,9.14,2.18,2.18,0,0,1,9.14,7.9a3.62,3.62,0,0,1,1.22-.23c.69,0,.89,0,2.64,0m0-1.18c-1.78,0-2,0-2.7,0a4.88,4.88,0,0,0-1.59.3A3.45,3.45,0,0,0,6.8,8.71a4.88,4.88,0,0,0-.3,1.59c0,.7,0,.92,0,2.7s0,2,0,2.7a4.88,4.88,0,0,0,.3,1.59A3.45,3.45,0,0,0,8.71,19.2a4.88,4.88,0,0,0,1.59.3c.7,0,.92,0,2.7,0s2,0,2.7,0a4.88,4.88,0,0,0,1.59-.3,3.45,3.45,0,0,0,1.91-1.91,4.88,4.88,0,0,0,.3-1.59c0-.7,0-.92,0-2.7s0-2,0-2.7a4.88,4.88,0,0,0-.3-1.59A3.45,3.45,0,0,0,17.29,6.8a4.88,4.88,0,0,0-1.59-.3c-.7,0-.92,0-2.7,0"/><path id="_Compound_Path_2" data-name="&lt;Compound Path&gt;" class="cls-2" d="M13,9.64A3.36,3.36,0,1,0,16.36,13,3.35,3.35,0,0,0,13,9.64m0,5.54A2.18,2.18,0,1,1,15.18,13,2.19,2.19,0,0,1,13,15.18"/><path id="_Path_" data-name="&lt;Path&gt;" class="cls-2" d="M17.28,9.51a.79.79,0,1,1-.79-.79.78.78,0,0,1,.79.79"/></g></g></svg>