<svg id="Layer_1" data-name="Layer 1" xmlns="http://www.w3.org/2000/svg" viewBox="0 0 65 30"><defs><style>.cls-1{fill:#1d1d1b;}.cls-2{fill:#e20d17;}.cls-3{fill:#ea610a;}.cls-4{fill:#f59e00;}</style></defs><title>Artboard 4 copy</title><path class="cls-1" d="M23.26,24.35a1,1,0,0,0-.32-.21,1.11,1.11,0,0,0-.41-.08l-.25,0a1.21,1.21,0,0,0-.25.08.79.79,0,0,0-.23.14.87.87,0,0,0-.19.23.9.9,0,0,0-.36-.34,1,1,0,0,0-.51-.13l-.2,0a.66.66,0,0,0-.2.06.82.82,0,0,0-.2.12.79.79,0,0,0-.17.19v-.32h-.54v2.6H20V25.29A.73.73,0,0,1,20,25a.6.6,0,0,1,.14-.21.57.57,0,0,1,.21-.13.66.66,0,0,1,.25,0,.54.54,0,0,1,.43.18.75.75,0,0,1,.15.5v1.45h.55V25.29a.94.94,0,0,1,0-.3,1.1,1.1,0,0,1,.14-.21.57.57,0,0,1,.21-.13.7.7,0,0,1,.25,0,.52.52,0,0,1,.43.18.7.7,0,0,1,.16.5v1.45h.55V25.1a1.12,1.12,0,0,0-.08-.42A.93.93,0,0,0,23.26,24.35Z"/><path class="cls-1" d="M26.16,24.45a1,1,0,0,0-.33-.28,1,1,0,0,0-.48-.11,1.26,1.26,0,0,0-.51.11,1.15,1.15,0,0,0-.41.28,1.28,1.28,0,0,0-.28.43,1.56,1.56,0,0,0,0,1.1,1.28,1.28,0,0,0,.28.43,1.15,1.15,0,0,0,.41.28,1.25,1.25,0,0,0,.51.1,1,1,0,0,0,.48-.1,1.09,1.09,0,0,0,.33-.27v.31h.57v-2.6h-.57Zm0,1.31A.63.63,0,0,1,26,26a.69.69,0,0,1-.24.18.87.87,0,0,1-.32.06.67.67,0,0,1-.33-.07.74.74,0,0,1-.25-.17.89.89,0,0,1-.15-.27.88.88,0,0,1,0-.64.89.89,0,0,1,.15-.27.94.94,0,0,1,.25-.18.81.81,0,0,1,.33-.06.87.87,0,0,1,.32.06.69.69,0,0,1,.24.18.63.63,0,0,1,.16.26.94.94,0,0,1,0,.66Z"/><path class="cls-1" d="M29.33,25.43a1.33,1.33,0,0,0-.66-.25l-.27,0-.17,0-.13-.05A.24.24,0,0,1,28,25a.15.15,0,0,1,0-.11.26.26,0,0,1,.13-.22.64.64,0,0,1,.36-.09l.24,0a1.55,1.55,0,0,1,.23.06l.19.07.15.07.24-.44a1.67,1.67,0,0,0-.47-.2,2.25,2.25,0,0,0-.58-.07,1.53,1.53,0,0,0-.45.06,1,1,0,0,0-.34.16.75.75,0,0,0-.21.26.78.78,0,0,0-.07.35.64.64,0,0,0,.22.51,1.25,1.25,0,0,0,.66.25l.27,0a1,1,0,0,1,.34.11A.22.22,0,0,1,29,26a.25.25,0,0,1-.15.23.88.88,0,0,1-.44.09l-.29,0-.23-.06-.19-.08L27.54,26l-.26.43a1.22,1.22,0,0,0,.29.17,2.22,2.22,0,0,0,.31.1,1.51,1.51,0,0,0,.28.05h.23a1.9,1.9,0,0,0,.5-.06,1,1,0,0,0,.37-.18.71.71,0,0,0,.23-.26.82.82,0,0,0,.08-.35A.6.6,0,0,0,29.33,25.43Z"/><path class="cls-1" d="M34.63,24.44a1.08,1.08,0,0,0-.38-.28,1.35,1.35,0,0,0-.5-.1,1.42,1.42,0,0,0-.52.1,1.2,1.2,0,0,0-.41.28,1.36,1.36,0,0,0-.27.43,1.69,1.69,0,0,0-.09.56,1.64,1.64,0,0,0,.09.56,1.28,1.28,0,0,0,.28.43,1.34,1.34,0,0,0,.42.28,1.51,1.51,0,0,0,.53.09,1.79,1.79,0,0,0,.57-.08,1.48,1.48,0,0,0,.5-.28l-.28-.4a1.58,1.58,0,0,1-.36.2,1.07,1.07,0,0,1-.39.07.84.84,0,0,1-.27,0,.57.57,0,0,1-.23-.12.85.85,0,0,1-.17-.2.81.81,0,0,1-.1-.3H35v-.1a.45.45,0,0,0,0-.11,1.64,1.64,0,0,0-.09-.56A1.34,1.34,0,0,0,34.63,24.44Zm-1.58.77a.72.72,0,0,1,.08-.26.7.7,0,0,1,.34-.34.77.77,0,0,1,.27,0,.57.57,0,0,1,.44.17.83.83,0,0,1,.22.47Z"/><path class="cls-1" d="M42.15,24.45a1,1,0,0,0-.33-.28,1,1,0,0,0-.48-.11,1.26,1.26,0,0,0-.51.11,1.15,1.15,0,0,0-.41.28,1.28,1.28,0,0,0-.28.43,1.56,1.56,0,0,0,0,1.1,1.28,1.28,0,0,0,.28.43,1.15,1.15,0,0,0,.41.28,1.25,1.25,0,0,0,.51.1,1,1,0,0,0,.48-.1,1.09,1.09,0,0,0,.33-.27v.31h.57v-2.6h-.57Zm0,1.31A.63.63,0,0,1,42,26a.69.69,0,0,1-.24.18.87.87,0,0,1-.32.06.67.67,0,0,1-.33-.07.74.74,0,0,1-.25-.17.89.89,0,0,1-.15-.27.88.88,0,0,1,0-.64.89.89,0,0,1,.15-.27.94.94,0,0,1,.25-.18.81.81,0,0,1,.33-.06.87.87,0,0,1,.32.06.69.69,0,0,1,.24.18.63.63,0,0,1,.16.26.94.94,0,0,1,0,.66Z"/><path class="cls-1" d="M31.76,26.21a.86.86,0,0,1-.27.05.41.41,0,0,1-.16,0,.26.26,0,0,1-.13-.08.38.38,0,0,1-.09-.15.73.73,0,0,1,0-.22V24.65H32v-.52h-.91v-.78h-.57v.78H30v.52h.52v1.14a1,1,0,0,0,.25.76.92.92,0,0,0,.68.24,1.29,1.29,0,0,0,.45-.07l.24-.11-.2-.48Z"/><path class="cls-1" d="M36.87,24.06a1,1,0,0,0-.43.09,1,1,0,0,0-.32.32v-.34H35.6v2.6h.52V25.3a.94.94,0,0,1,.05-.3.61.61,0,0,1,.13-.22.64.64,0,0,1,.19-.13.7.7,0,0,1,.25,0l.22,0,.12,0,.16-.54-.13,0Z"/><path class="cls-1" d="M44.74,24.06a1,1,0,0,0-.43.09.89.89,0,0,0-.32.32v-.34h-.52v2.6H44V25.3a.94.94,0,0,1,0-.3.61.61,0,0,1,.13-.22.64.64,0,0,1,.19-.13.7.7,0,0,1,.25,0l.22,0,.12,0,.16-.54-.13,0Z"/><path class="cls-1" d="M47.39,23.08v1.37a1.13,1.13,0,0,0-.34-.28,1,1,0,0,0-.48-.11,1.26,1.26,0,0,0-.51.11,1.15,1.15,0,0,0-.41.28,1.28,1.28,0,0,0-.28.43,1.56,1.56,0,0,0,0,1.1,1.28,1.28,0,0,0,.28.43,1.15,1.15,0,0,0,.41.28,1.25,1.25,0,0,0,.51.1,1,1,0,0,0,.48-.1,1.27,1.27,0,0,0,.34-.27v.31H48V23.08Zm0,2.68a.63.63,0,0,1-.16.26.61.61,0,0,1-.24.18.87.87,0,0,1-.32.06.7.7,0,0,1-.33-.07.74.74,0,0,1-.25-.17,1.17,1.17,0,0,1-.15-.27.88.88,0,0,1,0-.64,1.17,1.17,0,0,1,.15-.27.94.94,0,0,1,.25-.18.84.84,0,0,1,.33-.06.87.87,0,0,1,.32.06.61.61,0,0,1,.24.18.63.63,0,0,1,.16.26.94.94,0,0,1,0,.66Z"/><path class="cls-1" d="M38.23,24.83a.74.74,0,0,1,.25-.17.88.88,0,0,1,.33-.06h0a1,1,0,0,1,.35.06.85.85,0,0,1,.28.16l.27-.45a1.33,1.33,0,0,0-.35-.2,1.42,1.42,0,0,0-.55-.11,1.47,1.47,0,0,0-.56.11,1.21,1.21,0,0,0-.44.29,1.17,1.17,0,0,0-.29.43,1.33,1.33,0,0,0-.11.54,1.37,1.37,0,0,0,.11.54,1.17,1.17,0,0,0,.29.43,1.21,1.21,0,0,0,.44.29,1.47,1.47,0,0,0,.56.1,1.42,1.42,0,0,0,.55-.1,1.33,1.33,0,0,0,.35-.2L39.44,26a.85.85,0,0,1-.28.16,1,1,0,0,1-.35.06h0a.88.88,0,0,1-.33-.06.74.74,0,0,1-.25-.17.65.65,0,0,1-.17-.26.8.8,0,0,1-.07-.34.77.77,0,0,1,.07-.34A.65.65,0,0,1,38.23,24.83Z"/><path class="cls-1" d="M49.14,26.35a.2.2,0,0,1,.11,0l.09.05a.41.41,0,0,1,0,.09.18.18,0,0,1,0,.2.26.26,0,0,1,0,.09l-.09.06-.11,0-.1,0L49,26.8a.28.28,0,0,1-.06-.09.26.26,0,0,1,0-.2.47.47,0,0,1,.06-.09.19.19,0,0,1,.09-.05A.18.18,0,0,1,49.14,26.35Zm0,.45h.08l.06,0,0-.06a.22.22,0,0,0,0-.08.17.17,0,0,0,0-.07.09.09,0,0,0,0-.06l-.06,0-.08,0-.07,0a.18.18,0,0,0-.1.1.19.19,0,0,0,0,.07.24.24,0,0,0,0,.08l0,.06a.15.15,0,0,0,.06,0Zm0-.31a.08.08,0,0,1,.07,0,.05.05,0,0,1,0,.05.08.08,0,0,1,0,.05l-.05,0,.07.09h-.08l-.06-.08h0v.08H49v-.24Z"/><path class="cls-2" d="M30,12a9.78,9.78,0,0,1,3.71-7.67,9.78,9.78,0,1,0,0,15.34A9.76,9.76,0,0,1,30,12Z"/><ellipse class="cls-3" cx="33.67" cy="12" rx="3.71" ry="7.67"/><path class="cls-4" d="M48.85,17.29V17h-.11v-.08h.31V17h-.11v.28Zm.62,0V17l-.09.22h-.09L49.21,17v.25h-.08v-.36h.12l.09.23.09-.23h.12v.36Z"/><path class="cls-4" d="M39.74,2.22a9.74,9.74,0,0,0-6.07,2.11,9.78,9.78,0,0,1,0,15.34A9.78,9.78,0,1,0,39.74,2.22Z"/></svg>