<svg xmlns="http://www.w3.org/2000/svg" viewBox="0 0 26 26"><defs><style>.cls-1{fill:#976cff;}.cls-2{fill:#fff;}</style></defs><title>Iconos</title><g id="Icono"><circle class="cls-1" cx="13" cy="13" r="13"/><path id="_Path_" data-name="&lt;Path&gt;" class="cls-2" d="M7.25,16.61a6.71,6.71,0,0,0,10.32-6,4.72,4.72,0,0,0,1.18-1.22,4.43,4.43,0,0,1-1.35.37,2.34,2.34,0,0,0,1-1.3,4.53,4.53,0,0,1-1.5.57,2.34,2.34,0,0,0-1.72-.74,2.36,2.36,0,0,0-2.3,2.89A6.64,6.64,0,0,1,8.05,8.76a2.36,2.36,0,0,0,.73,3.15,2.29,2.29,0,0,1-1.07-.3A2.37,2.37,0,0,0,9.6,14a2.35,2.35,0,0,1-1.06,0,2.36,2.36,0,0,0,2.2,1.64A4.75,4.75,0,0,1,7.25,16.61Z"/></g></svg>