<svg xmlns="http://www.w3.org/2000/svg" viewBox="0 0 24 24"><defs><style>.cls-1{fill:#976cff;}</style></defs><title>Usuario(menu)</title><g id="Icono"><path class="cls-1" d="M12,3A9,9,0,0,0,4.76,17.35a7.24,7.24,0,0,0,.62.73,9,9,0,0,0,13.24,0,7.24,7.24,0,0,0,.62-.73A9,9,0,0,0,12,3Zm0,17.1a8.06,8.06,0,0,1-6.11-2.79,7.63,7.63,0,0,1,12.22,0A8.06,8.06,0,0,1,12,20.1Zm6.68-3.53a8.54,8.54,0,0,0-13.36,0A8,8,0,0,1,3.9,12a8.1,8.1,0,0,1,16.2,0A8,8,0,0,1,18.68,16.57Z"/><path class="cls-1" d="M12,7.24a2.7,2.7,0,1,0,2.7,2.7A2.7,2.7,0,0,0,12,7.24Zm0,4.5a1.8,1.8,0,1,1,1.8-1.8A1.8,1.8,0,0,1,12,11.74Z"/></g></svg>