<svg id="Layer_1" data-name="Layer 1" xmlns="http://www.w3.org/2000/svg" xmlns:xlink="http://www.w3.org/1999/xlink" viewBox="0 0 65 30"><defs><style>.cls-1{fill:url(#linear-gradient);}</style><linearGradient id="linear-gradient" x1="56.41" y1="734.28" x2="56.42" y2="734.14" gradientTransform="translate(-14410.47 -60680.93) scale(256 82.67)" gradientUnits="userSpaceOnUse"><stop offset="0" stop-color="#222357"/><stop offset="1" stop-color="#254aa5"/></linearGradient></defs><title>Artboard 4</title><path class="cls-1" d="M32.11,12.94c0,1.59,1.41,2.48,2.5,3s1.48.89,1.48,1.37c0,.74-.89,1.07-1.71,1.08a6,6,0,0,1-2.93-.7l-.52,2.42a8.48,8.48,0,0,0,3.18.59c3,0,5-1.48,5-3.78,0-2.91-4-3.07-4-4.38,0-.39.38-.81,1.21-.92a5.3,5.3,0,0,1,2.82.49l.5-2.34a7.68,7.68,0,0,0-2.68-.49c-2.82,0-4.81,1.5-4.82,3.65M44.43,9.49a1.3,1.3,0,0,0-1.21.81L38.93,20.54h3l.6-1.65h3.66l.35,1.65h2.64l-2.31-11H44.43m.42,3,.87,4.14H43.35l1.5-4.14m-16.38-3-2.36,11H29l2.36-11H28.47m-4.23,0-3,7.52-1.2-6.39a1.33,1.33,0,0,0-1.32-1.13H13.89l-.07.32a12.25,12.25,0,0,1,2.82.94,1.22,1.22,0,0,1,.68,1l2.28,8.82h3l4.63-11h-3"/></svg>