<?xml version="1.0" encoding="utf-8"?>
<!-- Generator: Adobe Illustrator 22.1.0, SVG Export Plug-In . SVG Version: 6.00 Build 0)  -->
<svg version="1.1" id="Layer_1" xmlns="http://www.w3.org/2000/svg" xmlns:xlink="http://www.w3.org/1999/xlink" x="0px" y="0px"
	 viewBox="0 0 1000 240" style="enable-background:new 0 0 1000 240;" xml:space="preserve">
<style type="text/css">
	.st0{fill:#976CFF;}
</style>
<path class="st0" d="M103.3,121.8c-0.5-1.1-0.5-2.4,0-3.6c2-4.7,3.6-9.5,4.9-14.4c2.5-9.7,3.7-19.6,3.7-29.6c0-10-1.2-19.9-3.7-29.6
	c-2.7-9.9-6.3-19.8-13.5-29.6C87.5,24.8,84,34.7,81.2,44.6c-2.5,9.7-3.7,19.6-3.7,29.6c0,10,1.2,19.9,3.7,29.6
	c1.2,4.6,2.8,9.2,4.6,13.6c0.7,1.7,0.7,3.5,0,5.2c-1.8,4.4-3.3,8.9-4.6,13.5c-2.5,9.7-3.7,19.6-3.7,29.6c0,10,1.2,19.9,3.7,29.6
	c2.7,9.9,6.3,19.8,13.6,29.6c7.2-9.9,10.8-19.8,13.6-29.6c2.5-9.7,3.7-19.6,3.7-29.6c0-10-1.2-19.9-3.7-29.6
	C107,131.3,105.3,126.5,103.3,121.8z"/>
<path class="st0" d="M161.4,36.9c2.6,5.3,4.4,10.9,5.4,16.6c1,5.5,1.5,11.1,1.5,16.6c0,5.6-0.5,11.1-1.5,16.6
	c-1,5.8-2.8,11.4-5.4,16.6c-2.6-5.3-4.4-10.9-5.4-16.6c-1-5.5-1.5-11.1-1.5-16.6c0-5.6,0.5-11.1,1.5-16.6
	C157,47.8,158.8,42.2,161.4,36.9z"/>
<path class="st0" d="M161.4,138.4c2.6,5.3,4.4,10.9,5.4,16.6c1,5.5,1.5,11.1,1.5,16.6c0,5.6-0.5,11.1-1.5,16.6
	c-1,5.8-2.8,11.4-5.4,16.6c-2.6-5.2-4.4-10.9-5.4-16.6c-1-5.5-1.5-11.1-1.5-16.6c0-5.6,0.5-11.1,1.5-16.6
	C157,149.3,158.8,143.7,161.4,138.4z"/>
<path class="st0" d="M35.5,224.2V15.8c0-0.5,0.4-0.8,0.8-0.8h8.3c3.9,0,7.5,2.1,9.5,5.4c5.2,8.7,8.2,17.4,10.5,26.1
	c2.6,10.3,3.9,20.9,3.9,31.6c0.1,10.6-1.2,21.2-3.8,31.6c-0.7,2.6-1.5,5.2-2.3,7.8c-0.6,1.7-0.6,3.5,0,5.2c0.8,2.6,1.6,5.1,2.3,7.7
	c2.6,10.3,3.9,20.9,3.9,31.6c0.1,10.6-1.2,21.2-3.8,31.6c-1.5,5.8-3.5,11.5-5.8,17c-4,8.9-12.8,14.6-22.6,14.5l0,0
	C35.9,225,35.6,224.7,35.5,224.2z"/>
<path class="st0" d="M135.8,121c-0.4-0.8-0.4-1.7,0-2.5c3.2-6.7,5.6-13.7,7.1-21c1.8-8.5,2.7-17.2,2.6-25.9c0-8.7-0.9-17.4-2.7-25.9
	c-1.9-8.6-4.5-17.3-9.7-25.9c-5.1,8.6-7.8,17.2-9.7,25.9c-1.8,8.5-2.7,17.2-2.7,25.9c0,8.7,0.9,17.4,2.7,25.9
	c1.5,7.3,3.9,14.3,7.1,21c0.4,0.8,0.4,1.7,0,2.5c-3.2,6.7-5.5,13.7-7,21c-1.8,8.5-2.7,17.2-2.7,25.9c0,8.7,0.9,17.4,2.7,25.9
	c1.9,8.6,4.5,17.3,9.8,25.9c5.2-8.6,7.8-17.2,9.8-25.9c1.8-8.5,2.7-17.2,2.6-25.9c0-8.7-0.9-17.4-2.7-25.9
	C141.4,134.7,139,127.7,135.8,121z"/>
<path d="M352.6,119.2c4.9-3.7,7.7-9.6,7.4-15.7c0.2-6.4-2.6-12.4-7.5-16.5c-4.9-4.1-11.6-6.1-20.2-6.1h-28.2v78.1h30.2
	c8.2,0,14.9-1.9,19.9-5.6c5.3-3.9,7.9-9.6,7.9-17c0.1-4.3-1.1-8.5-3.7-12C356.9,122.4,354.9,120.6,352.6,119.2z M341.1,110.2
	c-2.2,1.6-5.6,2.3-10,2.3H320V95.3h11c4.7,0,8.2,0.8,10.2,2.3c1.9,1.4,3,3.7,2.8,6C344.1,106.7,343.1,108.8,341.1,110.2L341.1,110.2
	z M320,126.8h12.5c5,0,8.6,0.8,10.7,2.5c2,1.5,3.1,3.9,3,6.4c0.2,2.6-0.9,5-3,6.6c-2.2,1.6-5.8,2.4-10.6,2.4H320V126.8z"/>
<polygon points="386.9,127 422.2,127 422.2,112.1 386.9,112.1 386.9,95.8 424.3,95.8 424.3,80.9 370.9,80.9 370.9,159.1 425,159.1 
	425,144.2 386.9,144.2 "/>
<path d="M463.4,80.9l-32.3,78.1h16.6l6.9-17h32.2l6.9,17h17.2l-32.3-78.1H463.4z M480.9,127.4h-20.3l10.2-25.1L480.9,127.4z"/>
<polygon points="500.1,96 525.6,96 525.6,159.1 541.5,159.1 541.5,96 567,96 567,80.9 500.1,80.9 "/>
<path d="M590.5,97.2c2-1.7,4.8-2.5,8.4-2.5c2.6,0,5.2,0.6,7.5,1.8c2.2,1.2,4.1,3.1,5.2,5.4c0.4,0.6,0.7,1.3,1,2
	c0.3,0.8,0.6,1.7,0.8,2.5l0.5,1.4h17l-3.6-9.8c-2.1-5.9-6.2-10.9-11.5-14.1l-0.7-0.4c-5-2.7-10.6-4-16.3-3.9
	c-3.6,0-7.1,0.6-10.5,1.8c-3.1,1.1-6,2.9-8.5,5.1c-5,4.5-7.8,10.9-7.8,17.7c-0.1,5.3,1.8,10.4,5.4,14.3c3.5,3.8,9,6.4,16.5,8
	l8.9,1.8c5.6,1.1,7.9,2.5,8.8,3.5c1.3,1.3,2,3,2,4.9c0.1,2.4-1,4.8-3,6.2c-2.4,1.8-5.4,2.7-8.3,2.5c-2.9,0.1-5.7-0.6-8.3-1.8
	c-2.4-1.2-4.4-3.1-5.7-5.5c-0.3-0.6-0.6-1.3-0.9-2c-0.3-0.7-0.5-1.5-0.7-2.2l-0.4-1.6h-17.2l4,11c1.3,3.6,3.6,6.9,6.5,9.4l0.1,0.1
	c2.1,1.7,4.4,3.2,6.8,4.4c2.4,1.1,5,2,7.6,2.5c2.5,0.5,5.1,0.8,7.7,0.8c3.6,0,7.2-0.6,10.6-1.8c3.2-1.1,6.2-2.8,8.8-5.1
	c2.5-2.2,4.5-4.9,5.9-7.9c1.5-3.2,2.3-6.7,2.2-10.2c0.1-5.3-1.8-10.3-5.4-14.2c-3.5-3.9-9.1-6.7-16.5-8.2l-8.6-1.8
	c-5.8-1.2-8.2-2.6-9.2-3.6c-1.3-1.3-2.1-3.1-2-5C587.7,100.5,588.8,98.5,590.5,97.2z"/>
<polygon points="632.1,96 657.6,96 657.6,159.1 673.5,159.1 673.5,96 699,96 699,80.9 632.1,80.9 "/>
<path d="M752.7,128.8c0.1,4.1-1.3,8.1-4,11.2c-2.7,3-6.4,4.4-11.5,4.4s-8.7-1.5-11.4-4.5c-2.8-3.1-4.2-7.1-4.1-11.2V80.3h-16v49.5
	c0,4,0.8,8.1,2.3,11.8c1.5,3.6,3.7,6.9,6.5,9.5c2.9,2.7,6.3,4.8,10,6.3c4,1.6,8.3,2.4,12.6,2.3c4.3,0,8.6-0.7,12.7-2.3
	c3.7-1.4,7.1-3.6,10-6.3c2.8-2.7,5-5.9,6.5-9.5c1.6-3.7,2.3-7.7,2.3-11.8V80.3h-16V128.8z"/>
<path d="M835,91.2c-3.9-3.4-8.4-6-13.3-7.7c-5.2-1.8-10.6-2.7-16.1-2.6h-24.1v78.1H805c5.6,0,11.1-0.8,16.4-2.5
	c5-1.6,9.6-4.1,13.5-7.5c3.9-3.4,7-7.6,9.1-12.4c2.3-5.3,3.4-11.1,3.3-16.9c0.1-5.6-1-11.2-3.3-16.3C841.9,98.8,838.9,94.6,835,91.2
	z M806,144.2h-8.6V95.8h8.4c3.4,0,6.8,0.5,10.1,1.6c2.9,1,5.7,2.6,8,4.6c2.3,2.1,4.1,4.6,5.3,7.5c1.4,3.2,2.1,6.7,2,10.2
	c0.1,3.5-0.6,7-1.9,10.3c-1.1,2.9-2.9,5.5-5.1,7.6c-2.3,2.1-5,3.7-7.9,4.8C813,143.6,809.5,144.2,806,144.2L806,144.2z"/>
<rect x="857.3" y="80.9" width="15.9" height="78.1"/>
<path d="M961.3,104.3c-2.1-4.8-5-9.1-8.7-12.8c-3.7-3.7-8.1-6.6-12.9-8.7c-10.1-4.2-21.5-4.2-31.5,0c-4.8,2.1-9.2,5-12.9,8.7
	c-3.7,3.7-6.7,8-8.7,12.8c-4.3,10.1-4.3,21.4,0,31.5c2,4.8,5,9.2,8.7,12.8c3.7,3.6,8.1,6.6,12.9,8.6c10.1,4.3,21.5,4.3,31.5,0
	c4.8-2,9.2-5,12.9-8.6c3.7-3.7,6.7-8,8.7-12.8C965.5,125.7,965.5,114.3,961.3,104.3L961.3,104.3z M948.3,120c0,3.4-0.6,6.7-1.9,9.8
	c-1.2,3-3,5.7-5.2,7.9c-2.2,2.2-4.9,4-7.8,5.3c-6.1,2.5-13,2.5-19.2,0c-2.9-1.2-5.6-3-7.8-5.3c-2.2-2.3-4-5-5.2-7.9
	c-2.5-6.3-2.5-13.3,0-19.6c1.2-2.9,3-5.6,5.2-7.9c2.2-2.2,4.9-4,7.8-5.3c6.1-2.6,13-2.6,19.1,0c2.9,1.3,5.6,3,7.8,5.3
	c2.2,2.3,4,4.9,5.2,7.9C947.7,113.3,948.4,116.6,948.3,120z"/>
</svg>
