<svg id="Layer_1" data-name="Layer 1" xmlns="http://www.w3.org/2000/svg" viewBox="0 0 50 50"><defs><style>.cls-1{fill:#976cff;}</style></defs><title>Favicon</title><path class="cls-1" d="M25.39,25.4a1.05,1.05,0,0,1,0-.78,22.15,22.15,0,0,0,1.06-3.09,24.74,24.74,0,0,0,.79-6.36,25.22,25.22,0,0,0-.8-6.37,18.59,18.59,0,0,0-2.9-6.36,19,19,0,0,0-2.9,6.36,25.68,25.68,0,0,0-.8,6.37,25.19,25.19,0,0,0,.79,6.36,23.92,23.92,0,0,0,1,2.92,1.45,1.45,0,0,1,0,1.12,24.74,24.74,0,0,0-1,2.9,25.66,25.66,0,0,0-.8,6.36,25.21,25.21,0,0,0,.79,6.37,18.62,18.62,0,0,0,2.91,6.36,18.43,18.43,0,0,0,2.91-6.36,24.76,24.76,0,0,0,.79-6.37,25.2,25.2,0,0,0-.8-6.36A23.2,23.2,0,0,0,25.39,25.4Z"/><path class="cls-1" d="M37.85,7.16A12.73,12.73,0,0,1,39,10.73a19.61,19.61,0,0,1,.32,3.58A19.57,19.57,0,0,1,39,17.88a12.76,12.76,0,0,1-1.17,3.57,13.06,13.06,0,0,1-1.16-3.57,19.58,19.58,0,0,1-.32-3.57,21.56,21.56,0,0,1,.32-3.58A13.06,13.06,0,0,1,37.85,7.16Z"/><path class="cls-1" d="M37.85,29A12.79,12.79,0,0,1,39,32.54a20.39,20.39,0,0,1,0,7.14,12.71,12.71,0,0,1-1.17,3.58,13,13,0,0,1-1.16-3.58,19.58,19.58,0,0,1-.32-3.57,21.54,21.54,0,0,1,.32-3.57A13.12,13.12,0,0,1,37.85,29Z"/><path class="cls-1" d="M10.83,47.38V2.62A.18.18,0,0,1,11,2.44h1.78a2.4,2.4,0,0,1,2.05,1.17A21.64,21.64,0,0,1,17.1,9.22,27.58,27.58,0,0,1,17.92,16a27.07,27.07,0,0,1-.81,6.77c-.15.56-.32,1.13-.51,1.69a1.79,1.79,0,0,0,0,1.12c.18.55.35,1.1.5,1.65A27.56,27.56,0,0,1,17.92,34a27.09,27.09,0,0,1-.81,6.78,26.38,26.38,0,0,1-1.25,3.66A5.31,5.31,0,0,1,11,47.56h0A.18.18,0,0,1,10.83,47.38Z"/><path class="cls-1" d="M32.37,25.21a.59.59,0,0,1,0-.55,19.5,19.5,0,0,0,1.52-4.51,26.84,26.84,0,0,0,.57-5.56A27,27,0,0,0,33.88,9a18.41,18.41,0,0,0-2.09-5.56A18.12,18.12,0,0,0,29.71,9a26.32,26.32,0,0,0-.58,5.56,26.18,26.18,0,0,0,.57,5.56,19.5,19.5,0,0,0,1.52,4.51.66.66,0,0,1,0,.55,19.39,19.39,0,0,0-1.51,4.5,27.17,27.17,0,0,0,0,11.12,17.8,17.8,0,0,0,2.09,5.56,18.09,18.09,0,0,0,2.1-5.56,27.17,27.17,0,0,0,0-11.12A19.87,19.87,0,0,0,32.37,25.21Z"/></svg>